# Blender 3.2.0 Alpha
# www.blender.org
mtllib Fountain Base.mtl
o Cube
v -0.341093 -0.443687 -4.444961
v -0.341093 0.443687 -4.444961
v 0.546282 -0.443687 -4.444961
v 0.546282 0.443687 -4.444961
v -0.400507 -0.443687 -3.555969
v -0.636891 -0.443687 -2.666976
v -0.948062 -0.443687 -1.777984
v -1.219064 -0.443687 -0.888992
v -1.334943 -0.443687 0.000000
v -1.334943 0.443687 0.000000
v -1.219064 0.443687 -0.888992
v -0.948062 0.443687 -1.777984
v -0.636891 0.443687 -2.666976
v -0.400507 0.443687 -3.555969
v -0.447569 -0.443687 0.000000
v -0.331689 -0.443687 -0.888992
v -0.060687 -0.443687 -1.777984
v 0.250483 -0.443687 -2.666976
v 0.486868 -0.443687 -3.555969
v 0.486868 0.443687 -3.555969
v 0.250483 0.443687 -2.666976
v -0.060687 0.443687 -1.777984
v -0.331689 0.443687 -0.888992
v -0.447569 0.443687 0.000000
v 3.623522 0.443687 -4.444961
v 3.623522 -0.443687 -4.444961
v 3.564109 -0.443687 -3.555969
v 3.564109 0.443687 -3.555969
v 1.256178 0.443687 -3.718805
v 2.025488 0.443687 -3.980069
v 2.794798 0.443687 -3.718805
v 2.854212 0.443687 -4.607797
v 2.084902 0.443687 -4.869061
v 1.315592 0.443687 -4.607797
v 2.854212 -0.443687 -4.607797
v 2.084902 -0.443687 -4.869061
v 1.315592 -0.443687 -4.607797
v 1.256178 -0.443687 -3.718805
v 2.025488 -0.443687 -3.980069
v 2.794798 -0.443687 -3.718805
v -0.341093 -0.443687 4.444961
v -0.341093 0.443687 4.444961
v 0.546282 -0.443687 4.444961
v 0.546282 0.443687 4.444961
v -0.400507 -0.443687 3.555969
v -0.636891 -0.443687 2.666976
v -0.948062 -0.443687 1.777984
v -1.219064 -0.443687 0.888992
v -1.219064 0.443687 0.888992
v -0.948062 0.443687 1.777984
v -0.636891 0.443687 2.666976
v -0.400507 0.443687 3.555969
v -0.331689 -0.443687 0.888992
v -0.060687 -0.443687 1.777984
v 0.250483 -0.443687 2.666976
v 0.486868 -0.443687 3.555969
v 0.486868 0.443687 3.555969
v 0.250483 0.443687 2.666976
v -0.060687 0.443687 1.777984
v -0.331689 0.443687 0.888992
v 3.623522 0.443687 4.444961
v 3.623522 -0.443687 4.444961
v 3.564109 -0.443687 3.555969
v 3.564109 0.443687 3.555969
v 1.256178 0.443687 3.718805
v 2.025488 0.443687 3.980069
v 2.794798 0.443687 3.718805
v 2.854212 0.443687 4.607797
v 2.084902 0.443687 4.869061
v 1.315592 0.443687 4.607797
v 2.854212 -0.443687 4.607797
v 2.084902 -0.443687 4.869061
v 1.315592 -0.443687 4.607797
v 1.256178 -0.443687 3.718805
v 2.025488 -0.443687 3.980069
v 2.794798 -0.443687 3.718805
vn -0.3687 -0.0000 -2.4730
vn -0.0000 -0.0000 -4.4450
vn 0.0094 -0.0000 -4.4440
vn -0.0000 0.4437 -0.0000
vn -0.0000 -0.4437 -0.0000
vn 0.1559 -0.0000 4.1614
vn 0.1217 -0.0000 4.2745
vn 0.1381 -0.0000 4.2243
vn 0.2698 -0.0000 3.5291
vn -0.2698 -0.0000 -3.5291
vn -0.1381 -0.0000 -4.2243
vn -0.1217 -0.0000 -4.2745
vn -0.1559 -0.0000 -4.1614
vn 0.3687 -0.0000 2.4730
vn -0.0094 -0.0000 4.4440
vn 0.0094 -0.0000 4.4440
vn 0.0150 -0.0000 4.4424
vn -0.0150 -0.0000 4.4424
vn -0.0094 -0.0000 -4.4440
vn -0.0150 -0.0000 -4.4424
vn 0.0150 -0.0000 -4.4424
vn -0.3687 -0.0000 2.4730
vn -0.0000 -0.0000 4.4450
vn 0.1559 -0.0000 -4.1614
vn 0.1217 -0.0000 -4.2745
vn 0.1381 -0.0000 -4.2243
vn 0.2698 -0.0000 -3.5291
vn -0.2698 -0.0000 3.5291
vn -0.1381 -0.0000 4.2243
vn -0.1217 -0.0000 4.2745
vn -0.1559 -0.0000 4.1614
vn 0.3687 -0.0000 -2.4730
vt 0.375000 0.250000
vt 0.125000 0.500000
vt 0.625000 0.250000
vt 0.875000 0.500000
vt 0.375000 0.500000
vt 0.625000 0.500000
vt 0.125000 0.525000
vt 0.375000 0.225000
vt 0.125000 0.550000
vt 0.375000 0.200000
vt 0.125000 0.575000
vt 0.375000 0.175000
vt 0.125000 0.600000
vt 0.375000 0.150000
vt 0.125000 0.625000
vt 0.375000 0.125000
vt 0.875000 0.625000
vt 0.625000 0.125000
vt 0.875000 0.600000
vt 0.625000 0.150000
vt 0.875000 0.575000
vt 0.625000 0.175000
vt 0.875000 0.550000
vt 0.625000 0.200000
vt 0.875000 0.525000
vt 0.625000 0.225000
vt 0.375000 0.625000
vt 0.375000 0.600000
vt 0.375000 0.575000
vt 0.375000 0.550000
vt 0.375000 0.525000
vt 0.625000 0.525000
vt 0.625000 0.550000
vt 0.625000 0.575000
vt 0.625000 0.600000
vt 0.625000 0.625000
vt 0.625000 0.500000
vt 0.375000 0.500000
vt 0.375000 0.525000
vt 0.625000 0.525000
vt 0.625000 0.525000
vt 0.625000 0.525000
vt 0.625000 0.525000
vt 0.625000 0.500000
vt 0.625000 0.500000
vt 0.625000 0.500000
vt 0.375000 0.500000
vt 0.375000 0.500000
vt 0.375000 0.500000
vt 0.375000 0.525000
vt 0.375000 0.525000
vt 0.375000 0.525000
vt 0.375000 0.250000
vt 0.125000 0.500000
vt 0.625000 0.250000
vt 0.875000 0.500000
vt 0.375000 0.500000
vt 0.625000 0.500000
vt 0.125000 0.525000
vt 0.375000 0.225000
vt 0.125000 0.550000
vt 0.375000 0.200000
vt 0.125000 0.575000
vt 0.375000 0.175000
vt 0.125000 0.600000
vt 0.375000 0.150000
vt 0.875000 0.600000
vt 0.625000 0.150000
vt 0.875000 0.575000
vt 0.625000 0.175000
vt 0.875000 0.550000
vt 0.625000 0.200000
vt 0.875000 0.525000
vt 0.625000 0.225000
vt 0.375000 0.600000
vt 0.375000 0.575000
vt 0.375000 0.550000
vt 0.375000 0.525000
vt 0.625000 0.525000
vt 0.625000 0.550000
vt 0.625000 0.575000
vt 0.625000 0.600000
vt 0.625000 0.500000
vt 0.375000 0.500000
vt 0.375000 0.525000
vt 0.625000 0.525000
vt 0.625000 0.525000
vt 0.625000 0.525000
vt 0.625000 0.525000
vt 0.625000 0.500000
vt 0.625000 0.500000
vt 0.625000 0.500000
vt 0.375000 0.500000
vt 0.375000 0.500000
vt 0.375000 0.500000
vt 0.375000 0.525000
vt 0.375000 0.525000
vt 0.375000 0.525000
s 0
usemtl Material.002
f 5/8/1 14/26/1 2/3/1 1/1/1
f 1/1/2 2/3/2 4/6/2 3/5/2
f 35/47/3 32/44/3 25/37/3 26/38/3
f 4/6/4 2/4/4 14/25/4 20/32/4
f 20/32/4 14/25/4 13/23/4 21/33/4
f 21/33/4 13/23/4 12/21/4 22/34/4
f 22/34/4 12/21/4 11/19/4 23/35/4
f 23/35/4 11/19/4 10/17/4 24/36/4
f 1/2/5 3/5/5 19/31/5 5/7/5
f 5/7/5 19/31/5 18/30/5 6/9/5
f 6/9/5 18/30/5 17/29/5 7/11/5
f 7/11/5 17/29/5 16/28/5 8/13/5
f 8/13/5 16/28/5 15/27/5 9/15/5
f 32/44/4 31/43/4 28/40/4 25/37/4
f 19/31/6 20/32/6 21/33/6 18/30/6
f 18/30/7 21/33/7 22/34/7 17/29/7
f 17/29/8 22/34/8 23/35/8 16/28/8
f 16/28/9 23/35/9 24/36/9 15/27/9
f 9/16/10 10/18/10 11/20/10 8/14/10
f 8/14/11 11/20/11 12/22/11 7/12/11
f 7/12/12 12/22/12 13/24/12 6/10/12
f 6/10/13 13/24/13 14/26/13 5/8/13
f 26/38/14 25/37/14 28/40/14 27/39/14
f 31/43/15 40/52/15 27/39/15 28/40/15
f 40/52/5 35/47/5 26/38/5 27/39/5
f 19/31/5 3/5/5 37/49/5 38/50/5
f 38/50/5 37/49/5 36/48/5 39/51/5
f 39/51/5 36/48/5 35/47/5 40/52/5
f 20/32/16 19/31/16 38/50/16 29/41/16
f 29/41/17 38/50/17 39/51/17 30/42/17
f 30/42/18 39/51/18 40/52/18 31/43/18
f 4/6/4 20/32/4 29/41/4 34/46/4
f 34/46/4 29/41/4 30/42/4 33/45/4
f 33/45/4 30/42/4 31/43/4 32/44/4
f 3/5/19 4/6/19 34/46/19 37/49/19
f 37/49/20 34/46/20 33/45/20 36/48/20
f 36/48/21 33/45/21 32/44/21 35/47/21
f 45/60/22 41/53/22 42/55/22 52/74/22
f 41/53/23 43/57/23 44/58/23 42/55/23
f 71/93/16 62/84/16 61/83/16 68/90/16
f 44/58/4 57/79/4 52/73/4 42/56/4
f 57/79/4 58/80/4 51/71/4 52/73/4
f 58/80/4 59/81/4 50/69/4 51/71/4
f 59/81/4 60/82/4 49/67/4 50/69/4
f 60/82/4 24/36/4 10/17/4 49/67/4
f 41/54/5 45/59/5 56/78/5 43/57/5
f 45/59/5 46/61/5 55/77/5 56/78/5
f 46/61/5 47/63/5 54/76/5 55/77/5
f 47/63/5 48/65/5 53/75/5 54/76/5
f 48/65/5 9/15/5 15/27/5 53/75/5
f 68/90/4 61/83/4 64/86/4 67/89/4
f 56/78/24 55/77/24 58/80/24 57/79/24
f 55/77/25 54/76/25 59/81/25 58/80/25
f 54/76/26 53/75/26 60/82/26 59/81/26
f 53/75/27 15/27/27 24/36/27 60/82/27
f 9/16/28 48/66/28 49/68/28 10/18/28
f 48/66/29 47/64/29 50/70/29 49/68/29
f 47/64/30 46/62/30 51/72/30 50/70/30
f 46/62/31 45/60/31 52/74/31 51/72/31
f 62/84/32 63/85/32 64/86/32 61/83/32
f 67/89/19 64/86/19 63/85/19 76/98/19
f 76/98/5 63/85/5 62/84/5 71/93/5
f 56/78/5 74/96/5 73/95/5 43/57/5
f 74/96/5 75/97/5 72/94/5 73/95/5
f 75/97/5 76/98/5 71/93/5 72/94/5
f 57/79/3 65/87/3 74/96/3 56/78/3
f 65/87/21 66/88/21 75/97/21 74/96/21
f 66/88/20 67/89/20 76/98/20 75/97/20
f 44/58/4 70/92/4 65/87/4 57/79/4
f 70/92/4 69/91/4 66/88/4 65/87/4
f 69/91/4 68/90/4 67/89/4 66/88/4
f 43/57/15 73/95/15 70/92/15 44/58/15
f 73/95/18 72/94/18 69/91/18 70/92/18
f 72/94/17 71/93/17 68/90/17 69/91/17
